<?xml version="1.0" standalone="no"?>
<!DOCTYPE svg PUBLIC "-//W3C//DTD SVG 20010904//EN"
 "http://www.w3.org/TR/2001/REC-SVG-20010904/DTD/svg10.dtd">
<svg version="1.0" xmlns="http://www.w3.org/2000/svg"
 width="1154.000000pt" height="279.000000pt" viewBox="0 0 1154.000000 279.000000"
 preserveAspectRatio="xMidYMid meet">

<g transform="translate(0.000000,279.000000) scale(0.100000,-0.100000)"
fill="#000000" stroke="none">
<path d="M1310 2764 c-14 -35 -12 -64 5 -94 14 -25 9 -30 -343 -382 l-357
-358 -307 0 c-267 0 -308 -2 -308 -15 0 -13 41 -15 312 -15 l313 0 361 361
c328 328 363 360 382 350 11 -6 37 -11 57 -11 74 0 125 51 125 124 0 49 -9 66
-35 66 -23 0 -23 -1 -8 -30 45 -91 -66 -172 -138 -101 -33 33 -38 74 -13 109
14 21 14 22 -11 22 -18 0 -28 -7 -35 -26z"/>
<path d="M1335 2160 l-630 -630 -352 0 c-307 0 -353 -2 -353 -15 0 -13 46 -15
358 -15 l357 0 235 235 235 235 1350 0 1350 0 135 135 135 135 1400 0 1400 0
275 275 c227 227 270 275 250 275 -20 0 -84 -59 -285 -260 l-260 -260 -1375 0
-1375 0 110 110 110 110 840 0 840 0 150 150 c107 107 144 150 130 150 -13 0
-72 -52 -155 -135 l-135 -135 -845 0 -845 0 -260 -260 -260 -260 -1317 0
c-725 0 -1318 3 -1318 8 0 4 82 89 183 190 l182 182 705 0 705 0 160 160 160
160 400 0 401 0 44 45 c42 43 43 45 19 45 -15 0 -37 -12 -54 -30 l-29 -30
-395 0 -396 0 -160 -160 -160 -160 -685 0 -685 0 190 190 c133 133 184 190
170 190 -13 0 -238 -218 -650 -630z"/>
<path d="M8102 2495 c-36 -30 -55 -73 -49 -111 4 -26 4 -25 6 7 2 49 39 101
81 116 25 9 29 12 13 12 -12 1 -35 -10 -51 -24z"/>
<path d="M8210 2513 c8 -3 24 -10 35 -15 20 -9 20 -9 1 6 -11 9 -27 16 -35 15
-14 0 -14 -1 -1 -6z"/>
<path d="M7870 2148 l-194 -198 -1111 0 -1110 0 -210 -210 -210 -210 -565 0
-565 0 -475 -475 -475 -475 -1477 0 c-1307 0 -1478 -2 -1478 -15 0 -13 171
-15 1483 -15 l1482 0 475 475 475 475 2337 0 c1286 0 2338 -4 2338 -8 0 -5 7
-17 15 -28 12 -15 11 -11 -2 24 l-16 42 -796 0 -796 0 125 125 125 125 955 0
955 0 20 -37 c29 -52 66 -76 119 -76 77 0 129 51 129 128 0 51 -21 88 -66 115
-65 40 -147 13 -182 -59 l-20 -41 -960 0 -960 0 -140 -140 -140 -140 -940 0
-940 0 195 195 195 195 1110 0 1110 0 199 199 c145 145 196 202 190 212 -7 11
-59 -36 -204 -183z m1476 -247 c34 -15 45 -28 59 -64 17 -44 16 -47 -1 -83
-24 -49 -63 -76 -106 -76 -54 0 -93 25 -112 73 -16 40 -16 46 -1 85 16 42 42
67 80 77 33 8 39 7 81 -12z"/>
<path d="M8269 2303 c-13 -16 -12 -17 4 -4 9 7 17 15 17 17 0 8 -8 3 -21 -13z"/>
<path d="M8117 2279 c7 -7 15 -10 18 -7 3 3 -2 9 -12 12 -14 6 -15 5 -6 -5z"/>
<path d="M8168 2263 c6 -2 18 -2 25 0 6 3 1 5 -13 5 -14 0 -19 -2 -12 -5z"/>
<path d="M3282 1820 c-48 -29 -68 -82 -53 -139 l12 -45 -313 -313 -313 -313
-1307 0 c-1156 0 -1308 -2 -1308 -15 0 -13 153 -15 1317 -15 l1318 0 315 315
c308 308 317 316 344 305 89 -33 176 25 176 117 -1 99 -103 155 -188 103z
m132 -51 c30 -35 32 -58 11 -98 -20 -40 -66 -55 -110 -37 -90 38 -64 166 34
166 32 0 44 -6 65 -31z"/>
<path d="M8654 1641 c-38 -23 -64 -58 -63 -86 0 -13 4 -9 12 14 15 43 55 73
109 82 42 6 42 7 8 8 -19 0 -49 -8 -66 -18z"/>
<path d="M8760 1646 c0 -2 7 -7 16 -10 8 -3 12 -2 9 4 -6 10 -25 14 -25 6z"/>
<path d="M8826 1587 c3 -10 9 -15 12 -12 3 3 0 11 -7 18 -10 9 -11 8 -5 -6z"/>
<path d="M8842 1530 c0 -14 2 -19 5 -12 2 6 2 18 0 25 -3 6 -5 1 -5 -13z"/>
<path d="M8799 1433 c-13 -16 -12 -17 4 -4 16 13 21 21 13 21 -2 0 -10 -8 -17
-17z"/>
<path d="M6642 1240 c-42 -26 -66 -81 -57 -128 7 -35 5 -36 -257 -299 l-263
-263 -660 0 -660 0 -245 -245 -245 -245 -452 0 c-249 0 -453 3 -453 8 0 4 208
215 463 470 l462 462 891 0 890 0 17 -39 c31 -69 119 -97 190 -59 31 16 57 70
57 120 0 142 -204 173 -252 38 l-10 -30 -897 0 -896 0 -485 -485 -485 -485
-1647 0 c-1458 0 -1648 -2 -1648 -15 0 -13 21 -15 129 -15 102 0 131 -3 141
-15 7 -8 24 -15 37 -15 22 0 24 2 13 15 -11 13 138 15 1333 15 1183 0 1346 -2
1357 -15 7 -8 24 -15 37 -15 22 0 24 2 13 15 -11 13 21 15 278 15 245 0 291
-2 302 -15 7 -8 21 -15 32 -15 17 0 18 3 8 15 -11 13 116 15 1131 15 l1144 0
365 365 365 365 545 0 545 0 380 -380 c247 -247 387 -380 400 -380 14 0 -105
125 -375 395 l-395 395 -535 0 -535 0 95 95 95 95 645 0 645 0 242 -242 c238
-239 242 -243 228 -268 -29 -51 -11 -131 37 -164 28 -20 100 -21 137 -1 30 15
61 69 61 105 0 37 -31 90 -63 107 -22 11 -47 14 -88 10 l-56 -5 -244 244 -244
244 -660 0 -660 0 -475 -475 -475 -475 -812 0 c-447 0 -813 3 -813 7 0 4 100
108 222 230 l223 223 665 0 665 0 264 264 264 264 31 -19 c40 -24 93 -24 130
0 39 26 55 57 56 109 0 92 -109 152 -188 102z m129 -49 c32 -33 36 -58 14
-100 -29 -56 -106 -63 -145 -14 -70 89 51 193 131 114z m-495 -95 c29 -29 34
-41 34 -79 0 -109 -124 -162 -200 -85 -38 38 -47 85 -25 132 22 45 56 65 114
66 36 0 49 -6 77 -34z m2553 -622 c63 -53 28 -154 -54 -154 -90 0 -120 125
-40 168 32 18 61 14 94 -14z"/>
<path d="M7203 703 c-35 -7 -81 -60 -89 -99 -4 -21 -1 -52 7 -76 l13 -39 -245
-245 c-168 -168 -238 -244 -224 -244 13 0 107 87 256 236 214 214 238 235 257
225 30 -16 100 -13 132 5 37 23 60 64 60 111 0 41 -28 96 -57 111 -24 13 -82
21 -110 15z m98 -36 c82 -55 64 -170 -31 -198 -68 -20 -140 34 -140 106 0 40
28 85 63 100 45 20 69 18 108 -8z"/>
</g>
</svg>
